<svg width="720" height="720" xmlns="http://www.w3.org/2000/svg" xmlns:xlink="http://www.w3.org/1999/xlink" xml:space="preserve" overflow="hidden"><defs><clipPath id="clip0"><rect x="280" y="0" width="720" height="720"/></clipPath></defs><g clip-path="url(#clip0)" transform="translate(-280 0)"><path d="M942.606 253.085 942.606 226.389C942.606 195.755 917.774 170.684 887.156 170.684L843.151 170.684C812.533 170.684 787.701 195.755 787.701 226.389L787.701 301.187 492.283 301.187 492.283 226.389C492.283 195.755 467.451 170.684 436.834 170.684L392.828 170.684C362.21 170.684 337.378 195.755 337.378 226.389L337.378 253.085C305.836 253.085 280 278.858 280 310.671L280 409.042C280 440.855 307.255 466.628 337.378 466.628L337.378 493.309C337.378 523.942 362.21 549.3 392.828 549.3L436.834 549.3C467.451 549.3 492.283 523.942 492.283 493.309L492.283 418.781 787.717 418.781 787.717 493.309C787.717 523.942 812.549 549.3 843.166 549.3L887.188 549.3C917.79 549.3 942.638 523.942 942.638 493.309L942.638 466.628C974.18 466.628 1000.02 440.823 1000.02 409.042L1000.02 310.671C999.968 278.858 972.714 253.085 942.606 253.085Z" fill="#DDCED0"/></g></svg>